<?xml version="1.0" encoding="UTF-8" standalone="no"?>
<svg
   xmlns:dc="http://purl.org/dc/elements/1.1/"
   xmlns:cc="http://creativecommons.org/ns#"
   xmlns:rdf="http://www.w3.org/1999/02/22-rdf-syntax-ns#"
   xmlns:svg="http://www.w3.org/2000/svg"
   xmlns="http://www.w3.org/2000/svg"
   xmlns:sodipodi="http://sodipodi.sourceforge.net/DTD/sodipodi-0.dtd"
   xmlns:inkscape="http://www.inkscape.org/namespaces/inkscape"
   viewBox="0 0 205.2 223.36"
   version="1.1"
   id="svg59"
   sodipodi:docname="BOTAO_COELHINHO_PASCOA.svg"
   inkscape:version="0.92.4 (5da689c313, 2019-01-14)">
  <metadata
     id="metadata63">
    <rdf:RDF>
      <cc:Work
         rdf:about="">
        <dc:format>image/svg+xml</dc:format>
        <dc:type
           rdf:resource="http://purl.org/dc/dcmitype/StillImage" />
      </cc:Work>
    </rdf:RDF>
  </metadata>
  <sodipodi:namedview
     pagecolor="#ffffff"
     bordercolor="#666666"
     borderopacity="1"
     objecttolerance="10"
     gridtolerance="10"
     guidetolerance="10"
     inkscape:pageopacity="0"
     inkscape:pageshadow="2"
     inkscape:window-width="779"
     inkscape:window-height="480"
     id="namedview61"
     showgrid="false"
     inkscape:zoom="1.0565903"
     inkscape:cx="102.6"
     inkscape:cy="111.68"
     inkscape:window-x="0"
     inkscape:window-y="27"
     inkscape:window-maximized="0"
     inkscape:current-layer="svg59" />
  <defs
     id="defs4">
    <style
       id="style2">.cls-1{fill:#663156;}.cls-2{fill:#3b0b32;}.cls-3{fill:#efd753;}.cls-4{fill:#81a299;}.cls-5{fill:#cf5539;}.cls-6{fill:#dd976b;}.cls-7{fill:#f4b490;}</style>
  </defs>
  <title
     id="title6">Asset 8</title>
  <path
     style="fill:#663156"
     inkscape:connector-curvature="0"
     id="path8"
     d="m 203.66,98.24 a 87.28,87.28 0 0 0 -4.63,-27 54.7,54.7 0 0 0 -13,-21.2 48.64,48.64 0 0 0 -22.44,-12.49 q -7.57,-2 -10.43,-2.57 a 65.25,65.25 0 0 0 -12.08,-1.34 126,126 0 0 0 -27,2.87 A 197.75,197.75 0 0 0 85.08,45 225.31,225.31 0 0 0 56.71,58 185.24,185.24 0 0 0 31.65,74.2 117.59,117.59 0 0 0 12.41,92.59 q -8,9.94 -10.8,19.41 a 36.84,36.84 0 0 0 -0.45,19.93 q 16.38,63.36 116,82.73 24.88,2.73 42.85,-12 a 89.6,89.6 0 0 0 16.86,-18 142.51,142.51 0 0 0 14.71,-26.81 157.19,157.19 0 0 0 9.24,-29.76 133.2,133.2 0 0 0 2.84,-29.85 z"
     class="cls-1" />
  <path
     class="cls-2"
     d="m 98.42,46 a 1,1 0 0 1 -0.23,0.06 1.69,1.69 0 0 1 -2,-1.35 C 90.94,15.66 74.19,10.86 69.19,10.09 62.12,9 55.37,11.55 52.82,16.36 50.47,20.79 51.98,26.24 57.06,31.7 A 1.6765739,1.6765739 0 1 1 54.62,34 c -6,-6.49 -7.78,-13.48 -4.76,-19.18 a 15.31,15.31 0 0 1 8,-6.82 22.63,22.63 0 0 1 11.9,-1.23 c 4.61,0.72 11.44,3.06 17.77,10.16 5.9,6.61 9.94,15.76 12,27.18 A 1.66,1.66 0 0 1 98.42,46 Z"
     id="path11"
     inkscape:connector-curvature="0"
     style="fill:#3b0b32" />
  <circle
     class="cls-2"
     cx="58.139999"
     cy="30.02"
     r="5.3400002"
     id="circle13"
     style="fill:#3b0b32" />
  <path
     class="cls-2"
     d="m 124.15,45.81 a 1.68,1.68 0 0 1 -1.67,-1.55 c -0.9,-11.84 1.89,-22.3 8.07,-30.24 a 36.43,36.43 0 0 1 21.51,-13.32 31.3,31.3 0 0 1 18.45,1.56 21,21 0 0 1 12,12.74 1.6728568,1.6728568 0 1 1 -3.17,1.07 C 176.08,6.42 165.14,1.45 152.73,4 138.05,7 124,20.5 125.81,44 a 1.67,1.67 0 0 1 -1.54,1.79 z"
     id="path15"
     inkscape:connector-curvature="0"
     style="fill:#3b0b32" />
  <circle
     class="cls-2"
     cx="177.45"
     cy="16.309999"
     r="5.3400002"
     id="circle17"
     style="fill:#3b0b32" />
  <path
     id="orelha_d"
     class="cls-2"
     d="m 72.92,67.33 4.75,-5.62 a 2.48,2.48 0 0 0 0,-3.22 l -5.34,-8.18 c -3.06,-3.74 -9.08,-3.27 -12.67,1 v 0 c -3.59,4.24 -3,10.26 1.14,12.65 l 9,3.91 a 2.47,2.47 0 0 0 3.12,-0.54 z"
     inkscape:connector-curvature="0"
     style="fill:#3b0b32" />
  <path
     id="orelha_e"
     class="cls-2"
     d="m 146.38,67.33 -4.75,-5.62 a 2.48,2.48 0 0 1 0,-3.22 L 147,50.31 c 3.06,-3.74 9.08,-3.27 12.67,1 v 0 c 3.59,4.24 3,10.26 -1.14,12.65 l -9,3.91 a 2.47,2.47 0 0 1 -3.15,-0.54 z"
     inkscape:connector-curvature="0"
     style="fill:#3b0b32" />
  <path
     class="cls-3"
     d="m 142.51,56.6 c -8.58,-10 -18.06,-17.72 -32.86,-17.72 -14.8,0 -24.28,7.73 -32.86,17.72 -35.28,44.11 -52.51,97.46 -55.81,160 H 198.32 C 195,154.06 177.79,100.71 142.51,56.6 Z"
     id="path21"
     inkscape:connector-curvature="0"
     style="fill:#efd753" />
  <path
     class="cls-2"
     d="m 109.72,181 c -3.73,0 -7.44,-1 -9.92,-3.15 -2.23,-1.9 -5.24,-6.24 -0.32,-14 2.54,-4.2 2.75,-10.66 0.58,-18.19 A 63.78,63.78 0 0 0 88.87,124.52 41.44,41.44 0 0 1 79,100.5 c -0.52,-7.9 1.18,-16.6 5,-25.86 a 0.83384651,0.83384651 0 1 1 1.54,0.64 c -8,19.11 -6.49,34.88 4.58,48.23 a 64.55,64.55 0 0 1 11.5,21.73 c 2.33,8.1 2.07,14.85 -0.77,19.53 v 0 c -3.19,5 -3.19,9.11 0,11.82 4.41,3.76 13.65,3.66 18,-0.18 3.08,-2.74 3,-6.76 -0.26,-11.62 v 0 c -2.84,-4.68 -3.1,-11.43 -0.77,-19.53 a 64.59,64.59 0 0 1 11.5,-21.72 c 10.81,-14 12.32,-29.74 4.58,-48.24 a 0.83384651,0.83384651 0 1 1 1.54,-0.64 c 3.81,9.11 5.45,17.77 4.85,25.73 a 44.49,44.49 0 0 1 -9.66,24.18 63.77,63.77 0 0 0 -11.2,21.15 c -2.17,7.52 -2,14 0.58,18.19 5,7.5 2.14,11.85 0,13.78 -2.56,2.22 -6.43,3.31 -10.29,3.31 z"
     id="path23"
     inkscape:connector-curvature="0"
     style="fill:#3b0b32" />
  <ellipse
     class="cls-4"
     cx="101.85"
     cy="73.910004"
     rx="2.55"
     ry="3.48"
     id="ellipse25"
     style="fill:#81a299" />
  <ellipse
     class="cls-4"
     cx="117.45"
     cy="73.910004"
     rx="2.55"
     ry="3.48"
     id="ellipse27"
     style="fill:#81a299" />
  <path
     class="cls-2"
     d="M 93,64.94 A 1.67,1.67 0 0 1 92.42,61.7 L 101,58.53 a 1.67,1.67 0 0 1 1.16,3.13 l -8.58,3.17 A 1.7,1.7 0 0 1 93,64.94 Z"
     id="path29"
     inkscape:connector-curvature="0"
     style="fill:#3b0b32" />
  <path
     class="cls-2"
     d="m 126.3,64.94 a 1.7,1.7 0 0 1 -0.58,-0.11 l -8.58,-3.17 a 1.67,1.67 0 1 1 1.16,-3.13 l 8.58,3.17 a 1.67,1.67 0 0 1 -0.58,3.24 z"
     id="path31"
     inkscape:connector-curvature="0"
     style="fill:#3b0b32" />
  <ellipse
     class="cls-2"
     cx="104.81"
     cy="170.42"
     rx="3.0899999"
     ry="5.27"
     id="ellipse33"
     style="fill:#3b0b32" />
  <ellipse
     class="cls-2"
     cx="114.48"
     cy="170.42"
     rx="3.0899999"
     ry="5.27"
     id="ellipse35"
     style="fill:#3b0b32" />
  <path
     class="cls-3"
     d="m 167.32,125.51 c 10,8.52 11.42,15.91 -0.8,22.2 -9,4.4 -17,12 -8.76,22.71 9,10.47 24.91,4.59 38.05,-7.38 16.11,-14.81 9.34,-43.71 -19.17,-62.46 -12.41,-8.49 -24,-11.43 -23.35,5.58"
     id="path37"
     inkscape:connector-curvature="0"
     style="fill:#efd753" />
  <path
     class="cls-2"
     d="m 169.73,176.68 c -0.39,0 -0.77,0 -1.15,0 A 15.89,15.89 0 0 1 157.12,171 v 0 c -3.08,-4 -4.21,-7.88 -3.35,-11.58 1.37,-5.89 7.5,-10 12.4,-12.4 5.1,-2.62 7.87,-5.53 8.23,-8.63 0.4,-3.49 -2.08,-7.48 -7.6,-12.18 a 0.84,0.84 0 0 1 -0.09,-1.18 0.83,0.83 0 0 1 1.17,-0.09 c 6,5.09 8.65,9.55 8.18,13.64 -0.43,3.74 -3.42,7 -9.14,9.93 -4.59,2.25 -10.3,6 -11.52,11.29 -0.74,3.18 0.28,6.6 3,10.16 a 14.25,14.25 0 0 0 10.28,5.04 c 7.62,0.46 17.3,-4.12 26.56,-12.56 6,-5.49 8.89,-13.3 8.19,-22 -1.14,-14 -11.32,-28.69 -27.25,-39.17 -8.55,-5.85 -14.94,-7.91 -18.5,-6 -2.57,1.41 -3.76,5 -3.56,10.8 a 0.82,0.82 0 0 1 -0.8,0.86 0.83,0.83 0 0 1 -0.87,-0.8 c -0.23,-6.44 1.26,-10.58 4.43,-12.33 4.2,-2.31 11,-0.28 20.23,6 a 70.83,70.83 0 0 1 20.1,19.35 44.88,44.88 0 0 1 7.89,21.08 c 0.74,9.19 -2.36,17.48 -8.73,23.33 -9.15,8.44 -18.78,13.12 -26.64,13.12 z"
     id="path39"
     inkscape:connector-curvature="0"
     style="fill:#3b0b32" />
  <path
     class="cls-5"
     d="M 108.52,217 C 79.21,225.46 50,225.53 21,217 23.08,204.2 24.56,193 38.35,184.41 H 91.17 C 105.4,194.55 107,205.44 108.52,217 Z"
     id="path41"
     inkscape:connector-curvature="0"
     style="fill:#cf5539" />
  <path
     class="cls-6"
     d="m 99.22,191.53 a 191.51,191.51 0 0 1 -69.39,0 c -0.17,-2.91 1.68,-5.78 5.4,-8.62 h 58.59 c 3.7,2.29 5.23,5.25 5.4,8.62 z"
     id="path43"
     inkscape:connector-curvature="0"
     style="fill:#dd976b" />
  <ellipse
     class="cls-7"
     cx="64.459999"
     cy="182.91"
     rx="29.360001"
     ry="2.4100001"
     id="ellipse45"
     style="fill:#f4b490" />
  <path
     class="cls-5"
     d="m 198.32,217 c -30.64,8.51 -59.83,8.58 -87.54,0 2.08,-12.8 3.56,-24 17.35,-32.59 H 181 c 14.2,10.14 15.83,21.03 17.32,32.59 z"
     id="path47"
     inkscape:connector-curvature="0"
     style="fill:#cf5539" />
  <path
     class="cls-6"
     d="m 189,191.53 a 191.51,191.51 0 0 1 -69.39,0 c -0.17,-2.91 1.68,-5.78 5.4,-8.62 h 58.59 c 3.72,2.29 5.25,5.25 5.4,8.62 z"
     id="path49"
     inkscape:connector-curvature="0"
     style="fill:#dd976b" />
  <ellipse
     class="cls-7"
     cx="154.27"
     cy="182.91"
     rx="29.360001"
     ry="2.4100001"
     id="ellipse51"
     style="fill:#f4b490" />
  <path
     class="cls-3"
     d="m 56.61,104.39 c -7.25,-5.63 -14.26,-3 -20.92,11 -15,29.26 -12.89,54.84 14.77,62.93 23,5.28 42,5.66 36.74,-11.75 -5,-12.73 -16.44,-14.13 -26.24,-10 -11.25,3.83 -10.5,-8.24 -8.18,-15.34"
     id="path53"
     inkscape:connector-curvature="0"
     style="fill:#efd753" />
  <path
     class="cls-2"
     d="m 73.06,182.39 h -0.74 c -5.77,-0.08 -13,-1.13 -22,-3.21 h -0.05 c -10.92,-3.2 -18.32,-9.15 -22,-17.71 -2.58,-6 -3.25,-13.11 -2,-21.2 1.2,-7.75 4.13,-16.23 8.72,-25.2 4,-8.35 8.11,-12.93 12.67,-14 3.07,-0.73 6.26,0.18 9.51,2.7 a 0.84,0.84 0 0 1 0.15,1.18 0.83,0.83 0 0 1 -1.17,0.14 c -2.87,-2.22 -5.52,-3 -8.1,-2.39 -4,0.94 -7.88,5.36 -11.55,13.11 v 0 c -9.26,18.07 -11.57,33.63 -6.68,45 3.47,8.07 10.51,13.71 20.91,16.75 8.94,2.05 16,3.09 21.68,3.17 6.39,0.09 10.77,-1.09 13,-3.5 2.09,-2.24 2.44,-5.71 1,-10.34 -2,-5 -5.06,-8.47 -9.19,-10.23 -4.57,-1.94 -10.23,-1.69 -15.94,0.7 h -0.05 c -3.75,1.28 -6.59,1 -8.45,-0.86 C 49.5,153.27 50.31,146.11 52,141 a 0.84,0.84 0 0 1 1,-0.54 0.85,0.85 0 0 1 0.54,1.06 c -1.6,4.9 -2.17,11.31 0.37,13.83 1.37,1.35 3.63,1.51 6.71,0.47 6.13,-2.56 12.24,-2.8 17.21,-0.69 4.57,1.94 8,5.71 10.11,11.2 v 0.06 c 1.59,5.25 1.12,9.28 -1.4,12 -2.52,2.72 -6.91,4 -13.48,4 z"
     id="path55"
     inkscape:connector-curvature="0"
     style="fill:#3b0b32" />
</svg>
