<?xml version="1.0" encoding="UTF-8" standalone="no"?>
<svg
   xmlns:dc="http://purl.org/dc/elements/1.1/"
   xmlns:cc="http://creativecommons.org/ns#"
   xmlns:rdf="http://www.w3.org/1999/02/22-rdf-syntax-ns#"
   xmlns:svg="http://www.w3.org/2000/svg"
   xmlns="http://www.w3.org/2000/svg"
   xmlns:sodipodi="http://sodipodi.sourceforge.net/DTD/sodipodi-0.dtd"
   xmlns:inkscape="http://www.inkscape.org/namespaces/inkscape"
   viewBox="0 0 320 1000"
   version="1.1"
   id="svg23"
   sodipodi:docname="BOTAO_RESET_ATIVO.svg"
   inkscape:version="0.92.5 (2060ec1f9f, 2020-04-08)"
   width="320"
   height="1000">
  <metadata
     id="metadata27">
    <rdf:RDF>
      <cc:Work
         rdf:about="">
        <dc:format>image/svg+xml</dc:format>
        <dc:type
           rdf:resource="http://purl.org/dc/dcmitype/StillImage" />
        <dc:title>BACKGROUNDAsset 28</dc:title>
      </cc:Work>
    </rdf:RDF>
  </metadata>
  <sodipodi:namedview
     pagecolor="#ffffff"
     bordercolor="#666666"
     borderopacity="1"
     objecttolerance="10"
     gridtolerance="10"
     guidetolerance="10"
     inkscape:pageopacity="0"
     inkscape:pageshadow="2"
     inkscape:window-width="2560"
     inkscape:window-height="1016"
     id="namedview25"
     showgrid="false"
     inkscape:zoom="0.96448567"
     inkscape:cx="218.61436"
     inkscape:cy="485.27135"
     inkscape:window-x="0"
     inkscape:window-y="27"
     inkscape:window-maximized="1"
     inkscape:current-layer="svg23"
     fit-margin-top="0"
     fit-margin-left="0"
     fit-margin-right="0"
     fit-margin-bottom="0" />
  <defs
     id="defs4">
    <style
       id="style2">.cls-1{fill:#eed653;}.cls-2{fill:#d3b435;}</style>
  </defs>
  <title
     id="title6">BACKGROUNDAsset 28</title>
  <g
     id="g828"
     transform="scale(1,3.7037037)">
    <rect
       style="fill:#eed653;stroke-width:1.1034236"
       y="0"
       x="0"
       height="270"
       width="299.99518"
       class="cls-1"
       id="botao_refresh_sombra" />
    <rect
       style="fill:#d3b435;stroke-width:1.1034236"
       y="0"
       height="270"
       width="299.99518"
       x="20.004826"
       class="cls-2"
       data-name="botao_refresh"
       id="botao_refresh-2" />
  </g>
  <path
     style="fill:#eed653;stroke-width:1.1034236"
     inkscape:connector-curvature="0"
     id="path10"
     d="m 224.24605,460.88868 -16.01048,10.3061 a 8.5845314,8.5847399 0 0 0 0.26482,14.59847 l 18.31661,10.85782 a 8.5734973,8.5737055 0 0 0 12.89887,-8.30888 l -2.2951,-21.16392 a 8.5845314,8.5847399 0 0 0 -13.17472,-6.28959 z"
     class="cls-1" />
  <path
     style="fill:#eed653;stroke-width:1.1034236"
     inkscape:connector-curvature="0"
     id="path12"
     d="m 116.48701,486.79738 a 7.6466327,7.6468184 0 0 1 -7.12803,-10.35024 64.913622,64.915199 0 0 1 115.10776,-11.74057 7.6364797,7.6366651 0 1 1 -12.8437,8.26474 49.653459,49.654665 0 0 0 -88.0411,8.99301 7.6245645,7.6247497 0 0 1 -7.09493,4.83306 z"
     class="cls-1" />
  <path
     style="fill:#eed653;stroke-width:1.1034236"
     inkscape:connector-curvature="0"
     id="path14"
     d="m 115.74773,539.10029 15.99945,-10.29507 a 8.5845314,8.5847399 0 0 0 -0.26482,-14.59847 l -18.30558,-10.85782 a 8.5845314,8.5847399 0 0 0 -12.9099,8.30888 l 2.35027,21.16392 a 8.5734973,8.5737055 0 0 0 13.13058,6.27856 z"
     class="cls-1" />
  <path
     style="fill:#eed653;stroke-width:1.1034236"
     inkscape:connector-curvature="0"
     id="path16"
     d="m 170.22309,565.08623 a 65.354986,65.356574 0 0 1 -13.8809,-1.46757 64.472258,64.473824 0 0 1 -40.82618,-28.30316 7.6364789,7.6366643 0 0 1 12.8437,-8.26474 49.653459,49.654665 0 0 0 89.0121,-11.77367 7.6355986,7.635784 0 0 1 14.54295,4.64546 64.957758,64.959336 0 0 1 -61.69167,45.16368 z"
     class="cls-1" />
</svg>
