<?xml version="1.0" encoding="UTF-8" standalone="no"?>
<svg
   xmlns:dc="http://purl.org/dc/elements/1.1/"
   xmlns:cc="http://creativecommons.org/ns#"
   xmlns:rdf="http://www.w3.org/1999/02/22-rdf-syntax-ns#"
   xmlns:svg="http://www.w3.org/2000/svg"
   xmlns="http://www.w3.org/2000/svg"
   xmlns:sodipodi="http://sodipodi.sourceforge.net/DTD/sodipodi-0.dtd"
   xmlns:inkscape="http://www.inkscape.org/namespaces/inkscape"
   viewBox="0 0 320 1000"
   version="1.1"
   id="svg16"
   sodipodi:docname="BOTAO_HOME.svg"
   inkscape:version="0.92.5 (2060ec1f9f, 2020-04-08)"
   width="320"
   height="1000">
  <metadata
     id="metadata20">
    <rdf:RDF>
      <cc:Work
         rdf:about="">
        <dc:format>image/svg+xml</dc:format>
        <dc:type
           rdf:resource="http://purl.org/dc/dcmitype/StillImage" />
        <dc:title>BACKGROUNDAsset 22</dc:title>
      </cc:Work>
    </rdf:RDF>
  </metadata>
  <sodipodi:namedview
     pagecolor="#ffffff"
     bordercolor="#666666"
     borderopacity="1"
     objecttolerance="10"
     gridtolerance="10"
     guidetolerance="10"
     inkscape:pageopacity="0"
     inkscape:pageshadow="2"
     inkscape:window-width="2560"
     inkscape:window-height="1016"
     id="namedview18"
     showgrid="false"
     inkscape:zoom="0.61806371"
     inkscape:cx="115.88129"
     inkscape:cy="412.55583"
     inkscape:window-x="0"
     inkscape:window-y="27"
     inkscape:window-maximized="1"
     inkscape:current-layer="svg16"
     fit-margin-top="0"
     fit-margin-left="0"
     fit-margin-right="0"
     fit-margin-bottom="0" />
  <defs
     id="defs4">
    <style
       id="style2">.cls-1{fill:#5f877a;}.cls-2{fill:#80a198;}.cls-3{fill:#e7e7e7;}</style>
  </defs>
  <title
     id="title6">BACKGROUNDAsset 22</title>
  <g
     id="g836"
     transform="scale(1,3.7037037)">
    <rect
       style="fill:#5f877a"
       y="0"
       x="0"
       id="rect8"
       height="270"
       width="300"
       class="cls-1" />
    <rect
       style="fill:#80a198"
       y="0"
       height="270"
       width="300"
       x="20"
       class="cls-2"
       data-name="botao_home"
       id="botao_home-2" />
  </g>
  <path
     id="botao_home_icone"
     class="cls-3"
     d="m 156.1,435 -50.34,44.09 A 16.2,16.2 0 0 0 100,491.3 v 61.48 c 0,9.51 8.8,17.22 19.66,17.22 h 11 c 10.86,0 19.66,-7.71 19.66,-17.22 v -25.19 c 0,-9.51 8.8,-17.22 19.66,-17.22 v 0 c 10.86,0 19.66,7.71 19.66,17.22 v 25.19 c 0,9.51 8.8,17.22 19.66,17.22 h 11 c 10.86,0 19.66,-7.71 19.66,-17.22 V 491.3 A 16.2,16.2 0 0 0 234.2,479.13 L 183.9,435 a 21.69,21.69 0 0 0 -27.8,0 z"
     inkscape:connector-curvature="0"
     style="fill:#e7e7e7" />
</svg>
